<svg xmlns="http://www.w3.org/2000/svg" viewBox="0 0 512 512">
	<path d="M460.6,343.4l20.1-13.3l-14.2-21.3l-32.2,21.5l-23.7-11.9l43.9-26.3l-13.2-21.9l-57.9,34.8l-24-12l43.9-26.3 c3.8-2.3,6.1-6.5,6.1-11c0-4.4-2.5-8.6-6.3-11l-43.9-26.3l24-12l57.9,34.8l13.2-21.9l-43.9-26.3l23.7-11.9l32.2,21.5l14.2-21.3 l-20.1-13.3l31.4-15.8l-11.5-22.9l-32.6,16.3v-30.5h-25.6v43.3l-25.6,12.8v-56.1h-25.6v68.8l-25.6,12.8V128c0-4.8-2.6-9.1-6.8-11.3 c-4.2-2.2-9.3-2-13.2,0.7l-56.8,37.9v-34l72.1-60.1l-16.4-19.7l-55.8,46.4V56.6l34.7-34.7L285.3,3.8l-16.6,16.6V0h-25.6v20.1 L226.6,3.5l-18.1,18.1l34.7,34.7v31.3l-55.8-46.4l-16.4,19.7L243,121v34l-56.8-37.9c-3.9-2.6-9-2.9-13.2-0.7 c-4.2,2.3-6.8,6.6-6.8,11.3v68.8l-25.6-12.8V115h-25.6v56.1l-25.6-12.8V115H64v30.5l-32.6-16.3l-11.5,22.9l31.4,15.9l-20.1,13.3 l14.2,21.3l32.2-21.5l23.7,11.9l-43.9,26.3l13,22l57.9-34.8l24,12l-43.9,26.3c-3.8,2.3-6.1,6.5-6.1,11c0,4.4,2.5,8.6,6.3,11 l43.9,26.5l-24,12l-57.9-34.8l-13.2,21.9l43.9,26.5l-23.7,11.9l-32.2-21.5l-14.2,21.3l20.1,13.3l-31.4,15.8l11.6,23.1l32.6-16.3 v30.5h25.6v-43.3l25.6-12.8v56.1h25.6v-68.8l25.6-12.8V384c0,4.8,2.6,9.1,6.8,11.3c4.2,2.2,9.3,2,13.2-0.7l56.8-37.9v34l-72.1,60.1 l16.4,19.7l55.8-46.4v31.3l-34.7,34.7l18.1,18.1l16.6-16.6V512h25.6v-20.3l16.6,16.6l18.1-18.1l-34.7-34.7v-31.3l55.8,46.4 l16.4-19.7L269,390.7v-34l56.8,37.9c2.1,1.4,4.6,2.1,7,2.1c2.1,0,4-0.5,6-1.6c4.2-2.3,6.8-6.6,6.8-11.3V315l25.6,12.8v68.8h25.6 v-56.1l25.6,12.8v43.3h25.6v-30.5l32.6,16.3l11.6-23.2L460.6,343.4z M179.8,279.5L140,255.8l39.8-23.7l47.6,23.7L179.8,279.5z M243.2,325.7l-51.2,34.2v-57.8l51.2-25.6V325.7z M243.2,235.1l-51.2-25.6v-57.8l51.2,34.2V235.1z M268.7,185.9l51.2-34.2v57.8 l-51.2,25.6V185.9z M320,359.8l-51.2-34.2v-49.2l51.2,25.6V359.8z M332.1,279.5l-47.6-23.7l47.6-23.7l39.8,23.7L332.1,279.5z"/>
</svg>