<svg xmlns="http://www.w3.org/2000/svg" viewBox="0 0 512 512">
	<g fill="#f44336">
    <path d="M461.7,119.6l-78.7,50L256.3,0L102.5,205.9c-24.8,33.2-37.9,72.8-37.9,114.4c0,15.3,1.8,30.1,5.2,44.3 l-68,38.6l22.5,36.1l460-283.6L461.7,119.6z M96.3,320.2c0-34.7,11-67.8,31.6-95.4L256.3,52.9l99.7,133.5L98.6,346.8 C97.1,338.2,96.3,329.3,96.3,320.2z"/>
    <path d="M394.5,239.5c14.4,24.4,21.8,52,21.8,80.8c0,88.2-71.8,160-160,160c-55.6,0-104.7-28.5-133.4-71.8L96,425.3 c34.3,52.1,93.3,86.7,160.2,86.7c105.7,0,191.7-86,191.7-191.7c0-34.7-9.2-68.1-26.6-97.5L394.5,239.5z"/>
  </g>
</svg>