<?xml version="1.0" encoding="utf-8"?>
<!-- Generator: Adobe Illustrator 27.0.0, SVG Export Plug-In . SVG Version: 6.00 Build 0)  -->
<svg version="1.1" id="Layer_1" xmlns="http://www.w3.org/2000/svg" xmlns:xlink="http://www.w3.org/1999/xlink" x="0px" y="0px"
	 viewBox="0 0 64 64" style="enable-background:new 0 0 64 64;" xml:space="preserve">
<path d="M53.2,51H10.8C4.8,51,0,46.3,0,40.6c0-4.8,3.4-8.9,8.1-10.1c1.7-6.9,8.3-11.7,15.8-11.4c3.5-3.9,8.6-6.2,14-6.2
	c5.4,0,10.5,2.2,14,6.1c3,3.3,4.5,7.3,4.6,11.6c4.4,1.4,7.5,5.3,7.5,9.9C64,46.3,59.2,51,53.2,51z M23.1,23.1
	c-5.6,0-10.6,4-11.3,9.4l-0.2,1.6l-1.6,0.2C6.6,34.6,4,37.3,4,40.6c0,3.5,3.1,6.4,6.8,6.4h42.4c3.7,0,6.8-2.9,6.8-6.4
	c0-3.2-2.5-5.9-5.8-6.3L52.3,34l0.2-1.9c0.4-3.8-0.9-7.4-3.5-10.3c-2.8-3.1-6.8-4.8-11.1-4.8c-4.6,0-8.8,2-11.6,5.5l-0.7,0.9
	l-1.1-0.1C24,23.2,23.6,23.1,23.1,23.1z"/>
</svg>
