<svg xmlns="http://www.w3.org/2000/svg" viewBox="0 0 512 512">
  <g fill="#4caf50">  
    <path d="M409.9,205.8L256,0L102.2,205.9c-24.8,33.2-37.9,72.8-37.9,114.4C64.3,426,150.3,512,256,512 s191.7-86,191.7-191.7C447.7,278.6,434.6,239.2,409.9,205.8z M256,480.3c-88.2,0-160-71.8-160-160c0-34.7,11-67.8,31.6-95.4 L256,52.9l128.4,171.9c20.7,27.8,31.6,60.8,31.6,95.5C416,408.5,344.2,480.3,256,480.3z"/>
    <path fill-opacity="0" d="M256,462.8c-78.8,0-143-64.2-143-143c0-31,9.8-60.6,28.2-85.3L256,80.8l114.8,153.6 c18.5,24.8,28.3,54.4,28.3,85.4C399,398.6,334.8,462.8,256,462.8z"/>
  </g>
</svg>