<svg xmlns="http://www.w3.org/2000/svg" xmlns:xlink="http://www.w3.org/1999/xlink" viewBox="0 0 64 64">
  <line stroke="#000" stroke-width="4" x1="52.5" y1="11.5" x2="11.5" y2="52.5"/>
  <circle fill="none" stroke="#000" stroke-width="4" r="30" transform="translate(32, 32)"/>
  <g>
    <circle cx="31.8" cy="12.9" r="1.2"/>
    <circle cx="34.3" cy="17.7" r="1.2"/>
    <circle cx="31.8" cy="22.4" r="1.2"/>
    <circle cx="29.4" cy="17.7" r="1.2"/>
    <circle cx="27" cy="22.4" r="1.2"/>
    <circle cx="36.7" cy="22.4" r="1.2"/>
    <circle cx="31.8" cy="8" r="1.2"/>
    <circle cx="29.4" cy="27.5" r="1.2"/>
    <circle cx="24.5" cy="27.5" r="1.2"/>
    <circle cx="34.3" cy="27.5" r="1.2"/>
    <circle cx="39.2" cy="27.5" r="1.2"/>
  </g>
  <path d="M13,34.6c0.1,0.3,3.5,8.1,8.8,10.9c1.5,0.8,3.1,1.2,4.7,1.2c1.2,0,2.4-0.2,3.6-0.6V62h3.8V46.1c1.2,0.4,2.4,0.6,3.6,0.6 c1.7,0,3.3-0.4,4.7-1.2c5.3-2.8,8.7-10.6,8.8-10.9c0.4-1,0-2.1-1-2.5c-0.1-0.1-0.3-0.1-0.4-0.1c-0.4-0.1-8.7-1.5-14,1.3 c-1.5,0.8-2.7,1.9-3.6,3.3c-0.9-1.4-2.2-2.5-3.6-3.3c-5.3-2.8-13.6-1.4-14-1.3c-1,0.2-1.7,1.2-1.5,2.2C12.9,34.3,12.9,34.4,13,34.6z  M37.4,36.6c2.6-1.4,6.4-1.4,8.9-1.2c-1.3,2.4-3.5,5.5-6,6.8c-2.6,1.4-5.2,0.5-6.5-0.1C34.1,40.6,34.8,38,37.4,36.6z M26.6,36.6 c2.6,1.4,3.3,4,3.5,5.4c-1.3,0.6-3.8,1.5-6.4,0.1c-2.6-1.4-4.7-4.6-5.9-6.8C20.2,35.2,24,35.2,26.6,36.6z"/>
</svg>
