<svg xmlns="http://www.w3.org/2000/svg" viewBox="0 0 512 512">
  <path fill="#343a40" d="M444.7,362.4L305.6,106.7c-22.3-37.6-76.8-37.7-99.2,0L67.3,362.4c-22.8,38.4,4.8,87.1,49.6,87.1h278.2 C439.8,449.5,467.5,400.9,444.7,362.4z"/>
  <path fill="#ffc107" d="M501.4,384L320.5,51.5c-29.1-48.9-99.9-49-129,0L10.6,384c-29.7,50,6.3,113.3,64.5,113.3h361.7 C495,497.2,531.1,434,501.4,384z M256,437.2c-16.5,0-30-13.5-30-30s13.5-30,30-30s30,13.5,30,30S272.5,437.2,256,437.2z M286,317.2 c0,16.5-13.5,30-30,30s-30-13.5-30-30v-150c0-16.5,13.5-30,30-30s30,13.5,30,30V317.2z"/>
</svg>
