<svg xmlns="http://www.w3.org/2000/svg" width="147" height="40" fill="none" viewBox="0 0 147 40"><path fill="#111820" d="M18.4585 0.213133C18.4586 0.143523 18.5181 0.0710441 18.5905 0.0520184C18.663 0.0330682 18.9852 0.0135896 19.3063 0.00875767L19.8902 0V2.93804V5.876L19.4021 5.90137L18.914 5.92666L18.8759 5.62467C18.8342 5.29496 18.4581 0.418641 18.4585 0.213133Z"/><path fill="#111820" d="M21.4762 2.72622C21.5984 1.29824 21.6984 0.113734 21.6984 0.0941049C21.6984 0.0743997 21.8425 0.0773445 22.0185 0.100674C22.1946 0.124003 22.5168 0.164999 22.7343 0.191801C23.0329 0.228644 23.1298 0.271301 23.1294 0.365674C23.1288 0.589076 22.2459 5.96936 22.2028 6.01254C22.1798 6.03557 21.9467 6.02568 21.685 5.99057L21.209 5.92662L21.2315 5.62463C21.244 5.45853 21.354 4.15429 21.4762 2.72622Z"/><path fill="#111820" d="M15.2015 0.718406C15.1839 0.589529 15.2603 0.550648 15.7461 0.441174C16.6767 0.231438 16.537 -0.0474548 17.076 3.09548C17.336 4.61113 17.5499 5.90601 17.5515 5.97298C17.5536 6.06169 17.4302 6.12118 17.0983 6.19177C16.8307 6.2487 16.6171 6.26078 16.5813 6.22099C16.5258 6.15931 15.2493 1.06879 15.2015 0.718406Z"/><path fill="#111820" d="M24.2177 3.4783C24.6138 1.93593 24.9378 0.660835 24.9378 0.644754C24.9378 0.614328 25.9091 0.878877 26.1951 0.987218C26.3571 1.04859 26.3445 1.09616 25.4607 3.75244C24.9661 5.23893 24.5466 6.49471 24.5285 6.5431C24.5046 6.60652 24.3638 6.58999 24.0233 6.48384C23.7637 6.40283 23.5392 6.32446 23.5244 6.30966C23.5096 6.29486 23.8216 5.02074 24.2177 3.4783Z"/><path fill="#111820" d="M12.0547 1.66736C12.0547 1.63006 12.3345 1.49628 12.6763 1.37004C13.0181 1.24381 13.3196 1.13871 13.3463 1.13652C13.4072 1.13147 13.3379 0.946041 14.3898 3.92598C14.8808 5.31705 15.3025 6.50616 15.3269 6.56844C15.3604 6.65368 15.2479 6.72488 14.8728 6.85602C14.5985 6.9519 14.3647 7.01985 14.3531 7.00702C14.3027 6.95077 12.0547 1.72821 12.0547 1.66736Z"/><path fill="#111820" d="M25.7135 7.03769C25.729 7.00794 26.263 5.80305 26.9002 4.36004C27.5374 2.91703 28.0861 1.73645 28.1196 1.73645C28.1995 1.73645 29.3827 2.33282 29.3827 2.37306C29.3827 2.4022 26.6729 7.48517 26.6304 7.5359C26.5911 7.58271 25.6858 7.09076 25.7135 7.03769Z"/><path fill="#111820" d="M9.13 3.2081C9.14318 3.19519 9.40725 3.02834 9.71675 2.83732C10.0264 2.64624 10.3118 2.50075 10.3513 2.51389C10.3907 2.5271 11.0442 3.6731 11.8033 5.06054C12.8784 7.02532 13.163 7.60199 13.09 7.66782C13.0385 7.71433 12.8389 7.84207 12.6465 7.95162C12.3778 8.10466 12.2795 8.12934 12.2229 8.058C12.0447 7.83324 9.10853 3.22909 9.13 3.2081Z"/><path fill="#111820" d="M28.0092 7.78159C28.1639 7.54082 28.8837 6.44072 29.6088 5.33686C30.334 4.23299 30.949 3.32806 30.9755 3.32587C31.0775 3.31756 32.1275 4.11861 32.1084 4.19018C32.09 4.25956 31.6079 4.89451 29.3824 7.7803L28.5779 8.82355L28.1529 8.5214L27.728 8.21933L28.0092 7.78159Z"/><path fill="#111820" d="M6.47461 5.23614L7.02309 4.77122C7.32483 4.51558 7.59388 4.31423 7.621 4.32382C7.69438 4.34979 11.2257 8.83578 11.2257 8.90305C11.2257 8.93483 11.0533 9.10645 10.8426 9.28447C10.5223 9.55514 10.4441 9.59107 10.365 9.50387L8.62589 7.5877C7.7215 6.59111 6.86744 5.65433 6.72806 5.50598L6.47461 5.23614Z"/><path fill="#111820" d="M30.1106 9.10597C30.3941 8.79846 31.2702 7.84914 32.0575 6.99638C32.8448 6.14362 33.532 5.44367 33.5845 5.44095C33.7213 5.43386 34.9857 6.71802 35.5866 7.47444C41.0263 14.3209 41.4479 23.8577 36.6312 31.1055C33.3333 36.068 28.1702 39.2121 22.1714 39.9108C20.901 40.0587 18.3111 40.0168 17.1024 39.8288C13.6814 39.2966 10.6798 38.0326 7.93952 35.9702C7.00236 35.2648 5.40513 33.7748 5.44002 33.6385C5.46496 33.5408 9.53328 29.6711 9.61096 29.6711C9.63846 29.6711 9.95368 29.9491 10.3115 30.2888C14.1229 33.9081 19.6364 35.0803 24.6285 33.3328C28.6372 31.9297 31.8628 28.6973 33.263 24.6802C34.998 19.7029 33.8344 14.1537 30.263 10.372L29.5953 9.66504L30.1106 9.10597Z"/><path fill="#111820" d="M4.29443 7.65226C4.29443 7.63158 4.48828 7.37843 4.72522 7.08979C4.96398 6.79905 5.19836 6.58123 5.25088 6.60139C5.30294 6.62148 6.29472 7.50896 7.45482 8.57365L9.56406 10.5095L9.21576 10.9137C8.87658 11.3074 8.86332 11.3146 8.70668 11.1893C8.61823 11.1186 7.5893 10.3023 6.42017 9.3753C5.25103 8.44832 4.29443 7.67295 4.29443 7.65226Z"/><path fill="#111820" d="M2.4696 10.4442C2.43976 10.4269 2.58969 10.1283 2.80275 9.7805L3.19008 9.14819L3.62013 9.42489C3.8567 9.5771 4.96791 10.2962 6.0895 11.0228L8.12875 12.3441L7.93474 12.6838C7.82806 12.8707 7.69863 13.0689 7.64717 13.1244C7.57009 13.2072 7.10661 12.9808 5.03865 11.8504C3.65547 11.0943 2.49936 10.4615 2.4696 10.4442Z"/><path fill="#111820" d="M1.14604 13.4759C1.1272 13.4604 1.28512 13.0201 1.57036 12.2929L1.64962 12.0908L4.3093 13.2307C5.77219 13.8576 6.98299 14.3815 6.99994 14.3949C7.01697 14.4083 6.94615 14.6317 6.84256 14.8916C6.71968 15.1998 6.61729 15.3554 6.54797 15.3395C6.41944 15.3099 1.177 13.5013 1.14604 13.4759Z"/><path fill="#111820" d="M17.2055 15.9966C17.7947 15.5819 18.3391 15.3549 19.099 15.2071C19.7633 15.0779 20.7132 15.1323 21.3845 15.3381C22.2003 15.5882 22.7429 15.92 23.4015 16.5717C24.4355 17.5947 24.9194 18.8438 24.8389 20.2821C24.6984 22.7922 22.7446 24.7501 20.2397 24.8909C18.8045 24.9716 17.558 24.4866 16.5371 23.4505C16.1843 23.0924 15.8356 22.6504 15.6968 22.3854C14.5061 20.1112 15.1334 17.455 17.2055 15.9966Z"/><path fill="#111820" d="M0.308163 16.6349C0.278478 16.6118 0.522055 15.338 0.574794 15.2406C0.594834 15.2036 4.19643 16.0714 5.97063 16.5407C6.28141 16.6229 6.2906 16.6536 6.17156 17.2099C6.11325 17.4824 6.05418 17.5913 5.96438 17.5916C5.81121 17.5921 0.351408 16.6687 0.308163 16.6349Z"/><path fill="#111820" d="M0.00105477 19.3842C0.00158215 19.0832 0.022527 18.7605 0.0474648 18.667C0.0799367 18.5457 0.149627 18.4969 0.291343 18.4963C0.56709 18.4951 5.57838 18.8773 5.76357 18.9136C5.89911 18.9402 5.91169 18.9928 5.88901 19.4374L5.8637 19.9316H2.93189H0L0.00105477 19.3842Z"/><path fill="#111820" d="M0.0751953 21.7684L2.58027 21.5395C3.95803 21.4136 5.27634 21.306 5.50982 21.3006L5.93422 21.2908L5.98733 21.7875C6.01649 22.0607 6.02892 22.2938 6.01491 22.3056C5.97468 22.3395 0.582916 23.1786 0.406469 23.1784C0.268897 23.1783 0.236576 23.109 0.161612 22.6541C0.114072 22.3658 0.0751953 22.0486 0.0751953 21.9491V21.7684Z"/><path fill="#111820" d="M1.75183 24.7314C2.34235 24.5777 3.58827 24.2527 4.52061 24.0093C5.45295 23.7658 6.23996 23.5641 6.26957 23.5611C6.3431 23.5536 6.61983 24.4868 6.5628 24.5497C6.46824 24.6539 1.10104 26.4254 1.04853 26.3696C0.980717 26.2976 0.678223 25.2805 0.678223 25.1245C0.678223 25.0418 0.969867 24.935 1.75183 24.7314Z"/><path fill="#111820" d="M1.77037 28.1102C1.81181 28.0943 3.01538 27.5576 4.44497 26.9172C5.87456 26.2769 7.05221 25.7512 7.06201 25.7491C7.09546 25.7417 7.54381 26.6664 7.51887 26.6914C7.47954 26.7308 2.56808 29.3713 2.44851 29.4172C2.37272 29.4464 2.24645 29.265 2.01809 28.7988C1.84044 28.4358 1.72893 28.1261 1.77037 28.1102Z"/><path fill="#111820" d="M3.37708 31.1256C3.36352 31.0758 4.43735 30.3058 5.76335 29.4144C7.08935 28.523 8.17953 27.7915 8.18601 27.7887C8.20839 27.7792 8.73961 28.5396 8.75822 28.6078C8.78346 28.7 4.21359 32.2438 4.1335 32.1942C4.04679 32.1405 3.40752 31.2374 3.37708 31.1256Z"/><path fill="#111820" fill-rule="evenodd" d="M83.3875 8.57023C80.5047 9.26753 77.902 11.1512 76.2358 13.7468C74.2991 16.7635 73.9765 21.2657 75.4579 24.6027C76.5034 26.9572 78.6285 29.1702 80.9143 30.2843C82.8773 31.2411 83.9984 31.4913 86.3083 31.4884C89.3741 31.4843 91.8663 30.7066 94.2562 29.0081C95.2348 28.3126 97.0792 26.4884 97.0792 26.2161C97.0792 26.1516 96.1934 25.6162 95.1107 25.0266L93.1424 23.9545L92.2723 24.9028C91.6337 25.5985 91.0123 26.0433 89.9369 26.5741C88.4914 27.2877 88.4471 27.2974 86.6603 27.2974C84.9606 27.2974 84.7793 27.2632 83.7137 26.741C82.2591 26.0282 80.8815 24.5833 80.3585 23.2224C79.6627 21.4113 78.6846 21.593 89.1293 21.593H98.276V20.0026C98.276 17.2592 97.5459 15.1334 95.8212 12.8538C94.3039 10.8484 91.6931 9.15872 89.2122 8.57636C87.8429 8.25487 84.7052 8.25163 83.3875 8.57023ZM134.311 8.56529C133.088 8.87384 131.748 9.53658 130.803 10.3001C128.022 12.548 127.516 17.0761 129.81 19.1825C131.214 20.471 132.877 21.0917 137.232 21.9509C140.227 22.542 140.563 22.6743 141.353 23.5701C141.847 24.1309 141.901 24.2877 141.825 24.9557C141.656 26.4515 139.889 27.5529 137.659 27.5529C135.549 27.5529 133.358 26.7307 131.541 25.2564C131.02 24.8336 130.565 24.4878 130.53 24.4878C130.495 24.4878 129.768 25.1946 128.914 26.0588C127.643 27.3455 127.399 27.6743 127.565 27.8759C128.044 28.4579 130.848 30.1069 132.169 30.5828C134.083 31.2725 135.251 31.4693 137.431 31.4693C141.618 31.4693 144.616 29.882 146.025 26.9184C146.529 25.8592 146.574 25.6254 146.574 24.0621C146.574 22.0756 146.265 21.2036 145.196 20.1689C144.06 19.0708 142.795 18.6066 138.867 17.8466C136.9 17.4661 134.997 17.0283 134.638 16.874C133.716 16.4771 133.153 15.7532 133.153 14.9641C133.153 13.0392 135.742 11.8279 138.661 12.3867C139.907 12.6251 141.998 13.5945 142.566 14.1963C142.781 14.4247 143.019 14.6115 143.093 14.6115C143.168 14.6115 143.825 13.8738 144.553 12.9723L145.876 11.3332L145.37 10.9271C144.627 10.3307 141.943 9.05281 140.761 8.73251C139.317 8.34103 135.583 8.24431 134.311 8.56529ZM54.1666 11.0355V13.2492H59.0574C63.4564 13.2492 63.9378 13.2764 63.844 13.5198C63.7867 13.6686 61.4833 17.4809 58.7254 21.9913C55.9675 26.5019 53.6186 30.3645 53.5054 30.5753L53.2998 30.9585H62.4525H71.6052V28.7448V26.5312H66.4762C63.6284 26.5312 61.3472 26.4644 61.3472 26.381C61.3472 26.2984 63.7321 22.3504 66.6471 17.6077C69.5621 12.8652 71.9471 8.94808 71.9471 8.9033C71.9471 8.85851 67.9465 8.8219 63.0568 8.8219H54.1666V11.0355ZM103.066 15.6757C103.069 23.3741 103.14 24.0342 104.197 26.1906C105.063 27.9566 106.97 29.8413 108.724 30.6649C110.414 31.4584 111.386 31.6703 113.321 31.6665C117.727 31.6578 121.486 28.9168 122.932 24.6581C123.292 23.5984 123.311 23.2369 123.369 16.1866L123.431 8.8219H121.035H118.639L118.587 15.6757L118.535 22.5295L118.06 23.4935C117.538 24.5528 116.639 25.455 115.508 26.0544C114.9 26.3769 114.511 26.4435 113.235 26.4433C111.9 26.443 111.582 26.383 110.831 25.9893C109.797 25.4478 108.802 24.397 108.301 23.3166C107.95 22.5604 107.934 22.2617 107.885 15.6757L107.835 8.8219H105.449H103.063L103.066 15.6757ZM87.7615 12.6292C89.7138 13.1487 91.4361 14.525 92.2126 16.186C92.9712 17.8092 93.4964 17.6765 86.3083 17.6765C79.08 17.6765 79.6264 17.8279 80.47 16.0588C81.7814 13.3083 84.864 11.8583 87.7615 12.6292Z" clip-rule="evenodd"/></svg>