<svg xmlns="http://www.w3.org/2000/svg" viewBox="0 0 512 512"><defs><linearGradient id="gradientPrimaryRound" x1="0" x2="0" y1="0" y2="100%" gradientUnits="userSpaceOnUse"><stop offset="0" stop-color="#ff7f2f"/><stop offset=".3" stop-color="#ff7f2f"/><stop offset=".6" stop-color="#cc6525"/><stop offset="1" stop-color="#cc6525"/></linearGradient><linearGradient id="gradientPrimaryText" x1="0" x2="0" y1="0" y2="100%" gradientUnits="userSpaceOnUse"><stop offset="0" stop-color="#ffbf97"/><stop offset=".3" stop-color="#ffbf97"/><stop offset=".6" stop-color="#ff7f2f"/><stop offset="1" stop-color="#ff7f2f"/></linearGradient></defs><g fill="url(#gradientPrimaryText)"><path d="M147.4,236.1h-29.6v-13.6h53.7L139,275.9h31.7v13.6H115L147.4,236.1z"/><path d="M247.4,275c-8,10.1-19.1,16.2-31.1,16.3c-23.4,0-37-17.6-37-35.3s13.6-35.3,37-35.3c14,0,34.7,11.5,34.7,37.7 v2.6h-55.6c0.8,10.2,10.4,17.6,20.5,17.6c7.8,0,14.4-3.7,19.4-10.4L247.4,275z M234.1,249.1c-3-10.2-10.7-15.6-19.8-15.6 s-16.6,5.7-19,15.6H234.1z"/><path d="M265.3,222.5h14.4V260c0,9.8,7.2,16.9,16.2,16.9c9,0,16.2-7.1,16.2-16.9v-37.5h14.4v38.8 c0,18.8-14.7,30-30.6,30c-15.9,0-30.6-11.2-30.6-30V222.5z"/><path d="M348.3,269.6c5.1,5.5,13.6,9.8,21,9.8c8.3,0,13.3-4.7,13.3-8.4c0-4.4-3.5-6.8-8.7-7.8l-8.2-1.5 c-18.8-3.5-24.1-9.6-24.1-19.1c0-11.4,9.6-21.9,26.3-21.9c9.3,0,17.4,2.8,26.6,9.3l-8.2,10.1c-7.1-6-13.3-7.5-18-7.5 c-6.2,0-12.3,3-12.3,8.4c0,4,3.2,6.1,8.7,7.1l14.5,2.8c11.9,2.2,17.7,7.9,17.7,17.9c0,9.8-8,22.6-28.4,22.6 c-11.4,0-21-4-30.2-11.8L348.3,269.6z"/></g><g fill="url(#gradientPrimaryRound)"><path d="M437,75L437,75c-2.2-2.2-4.4-4.3-6.7-6.4L379,123.7c1.6,1.5,3.2,3,4.7,4.6v0c34.1,34.1,52.9,79.5,52.9,127.8 c0,48.3-18.8,93.6-52.9,127.8c-34.1,34.1-79.5,52.9-127.8,52.9s-93.6-18.8-127.8-52.9l0,0c-1.5-1.5-3.1-3.1-4.5-4.7l-55.2,51.3 c2.1,2.3,4.3,4.5,6.5,6.7l0,0c48.4,48.4,112.6,75,181,75c68.4,0,132.7-26.6,181-75c48.4-48.4,75-112.6,75-181 C512,187.6,485.4,123.3,437,75z"/><path d="M196.4,85.4l-24.8-71.1c-5.9,2.1-11.8,4.4-17.5,6.8l30,69.1C188.1,88.4,192.2,86.8,196.4,85.4z"/><path d="M255.1,75.3L254.6,0c-6.2,0-12.6,0.3-18.8,0.8l5.9,75.1C246.2,75.5,250.6,75.3,255.1,75.3z"/><path d="M169.2,97.5l-36.2-66c-5.5,3-10.9,6.3-16.2,9.7l41,63.2C161.5,101.9,165.3,99.6,169.2,97.5z"/><path d="M144.3,113.9L97.6,54.8c-4.9,3.9-9.7,7.9-14.3,12.2l50.8,55.6C137.4,119.6,140.8,116.7,144.3,113.9z"/><path d="M366.2,112.7l46-59.6c-4.9-3.8-10.1-7.5-15.3-10.9L355.4,105C359.1,107.5,362.7,110.1,366.2,112.7z"/><path d="M341.1,96.6l35.5-66.4c-5.5-2.9-11.2-5.7-16.9-8.3l-30.5,68.9C333.3,92.5,337.3,94.5,341.1,96.6z"/><path d="M296.8,3.3c-6.2-1-12.4-1.8-18.7-2.3l-6.5,75c4.4,0.4,8.8,0.9,13.2,1.6L296.8,3.3z"/><path d="M337.8,13.4c-5.9-2-12-3.8-18-5.3l-18.7,73c4.3,1.1,8.6,2.4,12.7,3.8L337.8,13.4z"/><path d="M225.3,77.9L212.6,3.7c-6.2,1.1-12.4,2.4-18.4,3.9l18.1,73.1C216.6,79.6,220.9,78.7,225.3,77.9z"/><path d="M76,271.9l-75,6.5c0.5,6.2,1.3,12.5,2.3,18.7l74.3-12C76.9,280.7,76.4,276.3,76,271.9z"/><path d="M81,301.3L8.1,320.1c1.6,6,3.4,12.1,5.4,18L84.8,314C83.4,309.8,82.1,305.5,81,301.3z"/><path d="M122.4,134.4L66.8,83.6c-4.2,4.6-8.3,9.4-12.2,14.3l59.2,46.6C116.5,141,119.4,137.6,122.4,134.4z"/><path d="M105.2,355.6l-62.8,41.6c3.4,5.2,7.1,10.3,11,15.3l59.6-46.1C110.2,362.9,107.6,359.2,105.2,355.6z"/><path d="M90.8,329.4L22,360c2.5,5.7,5.3,11.4,8.3,16.9l66.4-35.6C94.6,337.4,92.6,333.4,90.8,329.4z"/><path d="M90.1,184.2L21,154.4c-2.5,5.7-4.8,11.6-6.8,17.6l71.2,24.7C86.8,192.4,88.4,188.3,90.1,184.2z"/><path d="M75.9,242l-75.1-5.8C0.3,242.4,0,248.7,0,254.9l75.3,0.3C75.3,250.9,75.5,246.4,75.9,242z"/><path d="M104.2,158l-63.2-40.9c-3.4,5.3-6.6,10.7-9.6,16.2l66.1,36.1C99.5,165.5,101.8,161.7,104.2,158z"/><path d="M80.6,212.5l-73.1-18c-1.5,6.1-2.8,12.2-3.8,18.4l74.2,12.7C78.6,221.2,79.6,216.8,80.6,212.5z"/></g></svg>