<svg xmlns="http://www.w3.org/2000/svg" viewBox="0 0 512 150">
	<defs>
    <linearGradient id="gradientPrimary" gradientUnits="userSpaceOnUse" x1="0" y1="0" x2="0" y2="100%">
			<stop offset="0" stop-color="#ff7f2f"></stop>
			<stop offset=".3" stop-color="#ff7f2f"></stop>
			<stop offset=".6" stop-color="#cc6525"></stop>
			<stop offset="1" stop-color="#cc6525"></stop>
		</linearGradient>
		<linearGradient id="gradientLight" gradientUnits="userSpaceOnUse" x1="0" y1="0" x2="0" y2="100%">
			<stop offset="0" stop-color="#fff" stop-opacity="1"></stop>
			<stop offset=".3" stop-color="#fff" stop-opacity="1"></stop>
			<stop offset=".6" stop-color="#ced4da" stop-opacity="1"></stop>
			<stop offset="1" stop-color="#ced4da" stop-opacity="1"></stop>
		</linearGradient>
	</defs>
	<g fill="url(#gradientPrimary)">
    <path d="M129.1,22.1L129.1,22.1c-0.7-0.7-1.3-1.3-2-1.9L112,36.5c0.5,0.4,0.9,0.9,1.4,1.3l0,0 c21.1,20.6,21.6,54.4,1,75.5s-54.4,21.6-75.5,1c-0.4-0.3-0.7-0.7-1-1l0,0c-0.5-0.5-0.9-0.9-1.3-1.4l-16.4,15.2 c0.6,0.7,1.3,1.3,1.9,2l0,0c30.3,28.8,78.2,27.7,107-2.6C157,97.3,157,51.3,129.1,22.1L129.1,22.1z"/>
    <path d="M58,25.2l-7.3-21c-1.7,0.6-3.5,1.3-5.2,2l8.9,20.4C55.6,26.1,56.7,25.6,58,25.2z"/>
    <path d="M75.4,22.3L75.2,0c-1.8,0-3.7,0.1-5.5,0.2l1.7,22.2C72.7,22.3,74.1,22.3,75.4,22.3z"/>
    <path d="M50,28.8L39.3,9.3c-1.6,0.9-3.2,1.9-4.8,2.9l12.1,18.7C47.7,30.1,48.8,29.4,50,28.8z"/>
    <path d="M42.6,33.7L28.8,16.2c-1.4,1.1-2.9,2.3-4.2,3.6l15,16.4C40.6,35.3,41.6,34.5,42.6,33.7z"/>
    <path d="M108.2,33.3l13.6-17.6c-1.5-1.1-3-2.2-4.5-3.2L105,31.1C106.1,31.8,107.2,32.5,108.2,33.3z"/>
    <path d="M100.8,28.5l10.4-19.6c-1.6-0.9-3.3-1.7-5-2.4l-9,20.3C98.5,27.3,99.6,27.9,100.8,28.5z"/>
    <path d="M87.7,1c-1.8-0.3-3.7-0.5-5.5-0.7l-1.9,22.2c1.3,0.1,2.6,0.3,3.9,0.5L87.7,1z"/>
    <path d="M99.8,4c-1.7-0.6-3.5-1.1-5.3-1.6L89,23.9c1.3,0.3,2.5,0.7,3.8,1.1L99.8,4z"/>
    <path d="M66.6,23l-3.8-22c-1.8,0.3-3.7,0.7-5.4,1.1l5.4,21.6C64,23.5,65.3,23.3,66.6,23z"/>
    <path d="M22.4,80.3L0.3,82.3c0.2,1.8,0.4,3.7,0.7,5.5l22-3.5C22.7,82.9,22.6,81.6,22.4,80.3z"/>
    <path d="M23.9,89L2.4,94.6c0.5,1.8,1,3.6,1.6,5.3L25,92.8C24.6,91.5,24.3,90.3,23.9,89z"/>
    <path d="M36.2,39.7l-16.4-15c-1.3,1.3-2.5,2.8-3.6,4.2l17.5,13.8C34.4,41.7,35.3,40.7,36.2,39.7z"/>
    <path d="M31.1,105.1l-18.5,12.3c1,1.5,2.1,3.1,3.2,4.5l17.6-13.6C32.6,107.2,31.8,106.1,31.1,105.1z"/>
    <path d="M26.8,97.3l-20.3,9c0.7,1.7,1.6,3.4,2.5,5l19.6-10.5C27.9,99.7,27.4,98.5,26.8,97.3z"/>
    <path d="M26.6,54.4L6.2,45.6c-0.7,1.7-1.4,3.4-2,5.2l21,7.3C25.6,56.9,26.1,55.6,26.6,54.4z"/>
    <path d="M22.4,71.5L0.2,69.8C0.1,71.7,0,73.5,0,75.4l22.3,0.1C22.3,74.2,22.3,72.9,22.4,71.5z"/>
    <path d="M30.8,46.7L12.1,34.6c-1,1.6-2,3.2-2.8,4.8L28.8,50C29.4,48.9,30.1,47.8,30.8,46.7z"/>
    <path d="M23.8,62.8L2.2,57.5c-0.4,1.8-0.8,3.6-1.1,5.4L23,66.6C23.2,65.3,23.5,64,23.8,62.8z"/>
    <circle cx="75.6" cy="75.6" r="18.5"/>
  </g>
  <g fill="url(#gradientLight)">
    <path d="M208.2,40.4h-16.4v-7.5h29.7l-18,29.5H221v7.5h-30.7L208.2,40.4z"/>
    <path d="M263.4,61.9c-4.1,5.5-10.4,8.8-17.2,9c-12.9,0-20.4-9.7-20.4-19.5s7.5-19.5,20.4-19.5 c7.7,0,19.2,6.4,19.2,20.8v1.4h-30.7c0.5,5.7,5.7,9.7,11.3,9.7c4.3-0.1,8.3-2.2,10.7-5.7L263.4,61.9z M256,47.5 c-1.7-5.6-6-8.6-10.9-8.6c-5.1,0-9.5,3.6-10.4,8.6L256,47.5z"/>
    <path d="M273.3,32.9h8v20.7c0,4.9,4,9,9,9s9-4,9-9V32.9h8v21.4c0,10.4-8.1,16.6-17,16.6c-8.9,0-17-6.2-17-16.6 L273.3,32.9z"/>
    <path d="M319.2,58.9c3,3.2,7.2,5.2,11.6,5.4c4.6,0,7.3-2.6,7.3-4.7c0-2.5-1.9-3.7-4.8-4.3l-4.5-0.8 c-10.4-1.9-13.3-5.2-13.3-10.6c0-6.3,5.2-12.1,14.5-12.1c5.3,0,10.5,1.8,14.7,5.1l-4.6,5.6c-2.7-2.5-6.2-4-9.9-4.1 c-3.4,0-6.8,1.7-6.8,4.7c0,2.2,1.8,3.4,4.8,3.9l8,1.5c6.5,1.2,9.8,4.4,9.8,9.9s-4.4,12.5-15.7,12.5c-6.2,0-12.1-2.4-16.7-6.5 L319.2,58.9z"/>
    <path d="M222,114.4h-0.2c-3,3.6-7.5,5.6-12.2,5.5c-12.2,0-19.2-9.9-19.2-19.5c0-9.1,7.6-19.5,19.6-19.5 c5.5,0,9.7,2.4,11.7,5.5h0.2v-4.5h8v37h-8L222,114.4z M210.7,112.4c6.6,0.1,12.1-5.1,12.3-11.7s-5.1-12.1-11.7-12.3 s-12.1,5.1-12.3,11.7c0,0.1,0,0.2,0,0.3C198.9,107,204.1,112.3,210.7,112.4L210.7,112.4z"/>
    <path d="M275.4,114.8c0,12.2-9.3,19.3-19.4,19.3c-6.1,0-11.8-2.7-15.7-7.3l6.5-4.7c2.1,2.8,5.3,4.4,8.7,4.6 c8.1,0,12.2-5.2,12.2-10.9v-2.5c-3.1,3.8-7.8,5.9-12.6,5.7c-9.6,0-18-7.2-18-18.9c0-12.2,9-19.1,18.9-19.1 c4.5-0.2,8.8,1.8,11.6,5.4h0.2v-4.4h7.5L275.4,114.8z M256.9,111.4c6.1,0,11-4.9,11-11c0-0.1,0-0.3,0-0.4 c0.3-6.1-4.4-11.3-10.5-11.7c-6.1-0.3-11.3,4.4-11.7,10.5c0,0.4,0,0.7,0,1.1C245.7,106.3,250.2,111.4,256.9,111.4L256.9,111.4z"/>
    <path d="M285.5,81.9h7.5v4h0.2c1.2-3,4-5,7.3-5.1c1.5,0,3,0.4,4.4,1.1l-2.8,7.8c-0.9-0.6-1.9-1-3-1.1 c-3,0-5.5,2.4-5.5,5.4c0,0.1,0,0.1,0,0.2v24.6h-8L285.5,81.9z"/>
    <path d="M325.9,80.9c12.9,0,20.4,9.7,20.4,19.5s-7.5,19.5-20.4,19.5s-20.4-9.7-20.4-19.5S313,80.9,325.9,80.9z M325.9,112.4c6.6,0,12-5.4,12-12c0-6.6-5.4-12-12-12c-6.6,0-12,5.4-12,12c-0.1,6.5,5,11.9,11.5,12 C325.5,112.4,325.7,112.4,325.9,112.4z"/>
    <path d="M363.8,90.3h-14.1v-8.4h37v8.4h-14.1v28.5h-8.9L363.8,90.3z"/>
    <path d="M427.2,110.9c-4.1,5.5-10.4,8.8-17.2,9c-12.9,0-20.4-9.7-20.4-19.5s7.5-19.5,20.4-19.5 c7.7,0,19.2,6.4,19.2,20.8v1.4h-30.7c0.5,5.7,5.7,9.7,11.3,9.7c4.3-0.1,8.3-2.2,10.7-5.7L427.2,110.9z M419.9,96.5 c-1.7-5.7-5.9-8.6-10.9-8.6c-5.1,0-9.5,3.6-10.4,8.6H419.9z"/>
    <path d="M464.5,94c-2-3.5-5.7-5.6-9.6-5.6c-6.6,0-12,5.4-12,12s5.4,12,12,12c4,0,7.7-2.1,9.6-5.6l7,4.1 c-3.7,5.6-9.9,9-16.6,9c-12.9,0-20.4-9.7-20.4-19.5s7.5-19.5,20.4-19.5c6.7-0.1,13,3.2,16.6,8.9L464.5,94z"/>
    <path d="M478.2,70.9h8v15.7h0.1c2.5-3.7,6.8-5.9,11.3-5.7c7.8,0,14.4,6.5,14.4,15.7v22.4h-8V98.4 c0-6.7-3.5-9.5-8.8-9.5c-5.3,0-9.1,3.3-9.1,9.3v20.7h-8L478.2,70.9z"/>
  </g>
</svg>