<?xml version="1.0" standalone="no"?>
<!DOCTYPE svg PUBLIC "-//W3C//DTD SVG 20010904//EN"
 "http://www.w3.org/TR/2001/REC-SVG-20010904/DTD/svg10.dtd">
<svg version="1.0" xmlns="http://www.w3.org/2000/svg"
 width="1920.000000pt" height="1080.000000pt" viewBox="0 0 1920.000000 1080.000000"
 preserveAspectRatio="xMidYMid meet">
<metadata>
Created by potrace 1.16, written by Peter Selinger 2001-2019
</metadata>
<g transform="translate(0.000000,1080.000000) scale(0.100000,-0.100000)"
fill="#000000" stroke="none">
<path d="M2978 8523 c-10 -2 -18 -12 -18 -21 0 -27 50 -673 55 -717 l5 -40 65
3 65 4 0 389 0 389 -77 -1 c-43 -1 -86 -3 -95 -6z"/>
<path d="M3390 8518 c0 -3 -13 -160 -29 -349 -17 -189 -31 -362 -33 -384 l-3
-40 63 -8 c35 -5 66 -6 69 -3 6 5 123 718 123 748 0 12 -13 18 -52 23 -29 3
-72 9 -95 12 -24 3 -43 3 -43 1z"/>
<path d="M2600 8472 c-64 -15 -75 -20 -72 -37 6 -47 175 -721 183 -729 5 -5
33 -4 68 4 45 9 61 17 61 29 -1 9 -29 180 -63 381 -72 416 -53 379 -177 352z"/>
<path d="M3820 8445 c0 -3 -43 -171 -96 -376 -52 -204 -94 -373 -92 -375 2 -2
32 -12 67 -23 45 -14 64 -16 67 -8 2 7 58 173 123 370 118 352 119 358 98 366
-38 15 -167 50 -167 46z"/>
<path d="M2193 8349 c-46 -17 -83 -35 -83 -40 0 -8 298 -700 305 -707 2 -2 33
7 69 20 50 17 65 27 60 38 -3 8 -59 166 -124 350 -140 395 -130 370 -139 369
-3 0 -43 -14 -88 -30z"/>
<path d="M4080 7953 c-84 -192 -155 -351 -157 -355 -4 -7 116 -72 122 -66 5 7
365 680 365 684 0 5 -157 84 -168 84 -4 0 -77 -156 -162 -347z"/>
<path d="M1800 8154 c-41 -25 -76 -47 -78 -49 -3 -3 387 -613 410 -642 8 -10
21 -6 57 14 25 14 52 31 58 37 10 9 -28 85 -170 346 -101 183 -188 335 -193
337 -5 2 -43 -18 -84 -43z"/>
<path d="M4440 7823 c-96 -146 -192 -292 -212 -324 l-38 -58 57 -40 56 -40
107 138 c295 383 359 467 362 476 2 9 -137 116 -151 114 -3 0 -85 -120 -181
-266z"/>
<path d="M1442 7898 l-73 -62 34 -35 c19 -20 132 -144 252 -276 120 -132 224
-246 231 -254 10 -11 21 -7 63 29 28 24 51 47 51 51 0 9 -469 603 -478 606 -4
2 -40 -25 -80 -59z"/>
<path d="M4765 7603 c-104 -113 -221 -238 -258 -279 l-69 -74 89 -94 c474
-501 628 -1236 398 -1895 -186 -532 -614 -960 -1146 -1146 -663 -231 -1394
-76 -1900 403 -48 45 -90 82 -93 82 -11 0 -551 -513 -554 -525 -5 -19 207
-216 332 -309 364 -274 762 -441 1216 -511 160 -25 504 -31 673 -11 796 92
1481 509 1919 1166 639 960 583 2223 -139 3130 -79 100 -247 270 -265 269 -7
0 -98 -93 -203 -206z"/>
<path d="M1137 7591 c-31 -38 -57 -72 -57 -75 0 -2 127 -105 282 -228 155
-123 292 -231 304 -240 20 -17 22 -16 67 36 l46 54 -280 256 c-153 141 -285
259 -292 262 -7 2 -38 -27 -70 -65z"/>
<path d="M8839 7395 c-168 -41 -321 -152 -418 -304 -113 -177 -132 -442 -46
-638 61 -138 186 -268 319 -333 115 -57 181 -71 316 -71 179 0 325 46 465 146
57 40 165 148 165 164 0 3 -52 35 -115 69 l-115 63 -51 -55 c-38 -41 -74 -67
-137 -99 -84 -41 -87 -42 -191 -42 -100 0 -110 2 -173 33 -85 42 -165 126
-196 206 -41 107 -98 96 513 96 l535 0 0 93 c0 162 -43 286 -144 420 -88 118
-241 217 -386 251 -80 19 -264 19 -341 1z m256 -239 c114 -30 215 -111 260
-208 45 -96 75 -88 -345 -88 -423 0 -391 -9 -341 95 76 162 257 247 426 201z"/>
<path d="M11818 7395 c-72 -18 -150 -57 -205 -102 -163 -132 -193 -398 -59
-521 83 -76 180 -113 435 -163 175 -35 194 -42 241 -95 29 -33 32 -42 27 -81
-10 -88 -113 -153 -243 -153 -124 0 -252 48 -358 135 -31 25 -57 45 -59 45 -2
0 -45 -42 -95 -92 -74 -76 -89 -95 -79 -107 28 -34 192 -131 269 -159 112 -40
181 -52 308 -52 245 0 420 93 503 267 29 62 32 76 32 168 0 117 -18 168 -81
229 -66 64 -140 91 -370 136 -115 22 -226 48 -247 57 -54 23 -87 66 -87 112 0
113 151 184 322 152 73 -14 195 -71 229 -107 12 -13 26 -24 30 -24 5 0 43 43
86 96 l77 97 -29 23 c-44 35 -201 110 -270 129 -84 23 -303 29 -377 10z"/>
<path d="M7130 7250 l0 -130 286 0 c257 0 286 -2 280 -16 -3 -9 -138 -233
-299 -497 -162 -265 -299 -492 -306 -504 l-12 -23 536 0 535 0 0 130 0 130
-300 0 c-167 0 -300 4 -300 9 0 5 140 237 310 515 171 279 310 509 310 511 0
3 -234 5 -520 5 l-520 0 0 -130z"/>
<path d="M9990 6978 c0 -453 5 -491 66 -618 51 -104 163 -214 265 -263 99 -46
156 -59 269 -59 258 1 478 162 562 412 21 62 22 83 26 498 l3 432 -140 0 -140
0 -3 -402 -3 -403 -28 -57 c-30 -62 -83 -115 -149 -150 -36 -19 -58 -23 -133
-23 -78 0 -97 4 -141 27 -60 32 -118 93 -148 157 -20 44 -21 62 -24 449 l-3
402 -139 0 -140 0 0 -402z"/>
<path d="M882 7235 c-28 -47 -48 -86 -44 -88 4 -3 157 -86 341 -187 274 -149
336 -179 346 -168 7 7 24 33 38 58 l26 45 -271 175 c-149 96 -296 191 -327
212 l-58 36 -51 -83z"/>
<path d="M718 6902 c-37 -97 -58 -155 -56 -157 4 -3 700 -243 717 -247 9 -2
23 19 39 60 14 34 23 64 21 65 -2 2 -163 72 -357 155 l-353 151 -11 -27z"/>
<path d="M3045 6516 c-101 -20 -173 -50 -251 -105 -275 -193 -359 -545 -201
-846 19 -35 65 -94 112 -141 135 -137 301 -202 491 -191 333 19 592 278 611
611 11 190 -54 356 -191 491 -87 86 -159 130 -268 163 -89 28 -215 35 -303 18z"/>
<path d="M586 6511 c-7 -13 -39 -181 -35 -184 6 -5 730 -127 751 -127 12 0 19
14 27 50 16 74 15 78 -26 89 -236 62 -714 177 -717 172z"/>
<path d="M516 6058 c-3 -13 -6 -56 -6 -95 l0 -73 389 0 389 0 4 65 c3 59 1 66
-17 70 -25 5 -690 55 -726 55 -19 0 -28 -6 -33 -22z"/>
<path d="M17177 6043 c-9 -8 -9 -469 0 -1150 l6 -533 139 0 138 0 0 409 c-1
469 -2 466 88 554 69 68 128 91 231 90 75 -1 91 -5 150 -35 55 -28 71 -42 98
-87 17 -29 37 -75 42 -103 7 -30 11 -200 11 -433 l0 -385 140 0 140 0 0 429
c0 248 -4 451 -10 482 -28 150 -143 298 -282 364 -204 97 -409 64 -560 -88
l-58 -59 0 276 0 276 -133 0 c-74 0 -137 -3 -140 -7z"/>
<path d="M853 5677 l-333 -30 0 -24 c0 -13 5 -55 11 -94 10 -60 15 -69 33 -69
23 0 739 111 744 116 2 1 1 32 -3 68 l-7 66 -57 -1 c-31 -1 -206 -15 -388 -32z"/>
<path d="M7720 5689 c-163 -14 -306 -82 -425 -204 -81 -82 -126 -154 -161
-254 -156 -448 164 -901 635 -901 155 0 266 40 366 132 l55 50 0 -76 0 -76
140 0 140 0 0 650 0 650 -140 0 -140 0 0 -73 0 -73 -51 48 c-28 26 -82 63
-120 82 -61 31 -90 38 -189 50 -14 1 -63 -1 -110 -5z m243 -289 c82 -31 185
-129 221 -210 76 -169 48 -336 -79 -469 -204 -214 -558 -156 -680 112 -74 160
-45 334 76 462 62 66 101 91 177 116 77 26 204 21 285 -11z"/>
<path d="M14660 5689 c-155 -18 -283 -82 -401 -200 -209 -208 -257 -517 -123
-788 77 -157 223 -283 394 -342 87 -30 283 -38 387 -16 86 19 173 53 250 98
60 36 213 176 213 195 0 7 -52 41 -115 77 l-114 65 -35 -43 c-93 -113 -277
-182 -416 -155 -152 29 -288 157 -316 297 l-6 33 538 2 539 3 -2 90 c-2 114
-23 206 -69 300 -129 265 -422 421 -724 384z m191 -255 c73 -22 129 -56 179
-110 42 -46 103 -160 94 -176 -3 -4 -171 -8 -375 -8 -422 0 -390 -9 -340 95
79 166 266 251 442 199z"/>
<path d="M16230 5689 c-154 -18 -282 -82 -400 -199 -200 -198 -255 -507 -136
-765 76 -167 209 -289 391 -359 78 -30 85 -31 245 -31 155 0 170 2 245 28 111
39 212 105 289 189 36 39 66 76 66 82 -1 11 -220 146 -239 146 -6 0 -11 -4
-11 -9 0 -26 -88 -104 -158 -138 -70 -35 -82 -38 -161 -38 -118 1 -182 27
-271 111 -75 71 -113 142 -132 244 -20 106 22 249 99 336 75 85 200 144 303
144 108 0 240 -67 298 -150 15 -22 31 -39 35 -40 15 0 236 135 237 144 0 5
-19 34 -42 64 -80 103 -229 197 -359 226 -82 18 -216 25 -299 15z"/>
<path d="M9245 5675 c-232 -51 -403 -203 -482 -427 -21 -59 -27 -97 -30 -198
-9 -228 41 -366 181 -506 65 -65 98 -89 166 -122 104 -49 163 -62 289 -62 158
0 287 50 390 152 l43 43 -4 -90 c-3 -70 -10 -103 -30 -147 -57 -123 -165 -198
-316 -220 -127 -19 -240 16 -338 105 l-51 46 -113 -81 -114 -82 71 -66 c80
-74 171 -127 283 -162 63 -19 96 -23 210 -23 121 1 143 4 215 29 248 86 418
296 442 544 5 42 7 339 5 660 l-2 582 -130 0 -130 0 0 -72 0 -72 -42 41 c-126
123 -319 171 -513 128z m340 -284 c75 -37 147 -111 183 -189 24 -51 27 -68 27
-172 0 -106 -2 -120 -29 -177 -34 -74 -123 -164 -191 -193 -193 -83 -417 -6
-505 174 -82 166 -53 360 71 485 119 118 292 147 444 72z"/>
<path d="M10845 5678 c-47 -17 -107 -65 -137 -110 l-28 -41 0 66 0 67 -130 0
-130 0 0 -650 0 -650 140 0 140 0 0 450 c0 477 1 492 48 543 48 53 142 73 203
43 18 -9 34 -14 36 -12 4 3 103 266 103 272 0 1 -18 9 -40 18 -46 18 -158 20
-205 4z"/>
<path d="M11636 5674 c-193 -48 -356 -183 -445 -369 -54 -110 -66 -170 -65
-305 1 -95 6 -129 27 -195 69 -210 228 -373 437 -447 57 -20 84 -23 215 -23
138 0 156 2 223 27 203 74 354 225 426 427 28 80 31 96 31 221 0 125 -3 141
-31 221 -72 203 -236 366 -434 431 -85 28 -295 35 -384 12z m315 -260 c76 -23
128 -56 188 -119 199 -210 131 -541 -136 -668 -63 -30 -76 -32 -174 -32 -101
0 -108 1 -181 38 -248 122 -312 430 -135 649 96 120 286 177 438 132z"/>
<path d="M12670 5510 l0 -150 245 0 245 0 0 -172 c0 -95 3 -318 7 -495 l6
-323 149 0 148 0 0 495 0 495 248 2 247 3 3 148 3 147 -651 0 -650 0 0 -150z"/>
<path d="M1110 5350 c-124 -32 -289 -75 -367 -96 -104 -27 -143 -41 -143 -52
0 -20 40 -155 49 -165 7 -7 720 228 732 241 8 9 -29 132 -39 131 -4 0 -108
-27 -232 -59z"/>
<path d="M1100 4965 c-190 -85 -349 -156 -355 -158 -5 -2 9 -43 33 -91 30 -62
47 -86 57 -82 16 6 668 355 673 361 3 3 -56 125 -61 124 -1 0 -157 -69 -347
-154z"/>
<path d="M1275 4634 c-176 -118 -319 -220 -317 -227 4 -14 89 -134 101 -141
10 -7 617 463 614 475 -3 9 -73 110 -76 108 -1 0 -146 -97 -322 -215z"/>
</g>
</svg>
