<svg xmlns="http://www.w3.org/2000/svg" width="13" height="13" fill="none" viewBox="0 0 13 13"><path stroke="#111820" stroke-linecap="round" stroke-linejoin="round" d="M10.8403 5.41333C11.3581 5.41333 11.7778 4.9936 11.7778 4.47583C11.7778 3.95806 11.3581 3.53833 10.8403 3.53833C10.3226 3.53833 9.90283 3.95806 9.90283 4.47583C9.90283 4.9936 10.3226 5.41333 10.8403 5.41333Z"/><path stroke="#111820" stroke-linecap="round" stroke-linejoin="round" d="M5.02783 7.61633V2.97571C5.02783 2.57788 5.18587 2.19635 5.46717 1.91505C5.74848 1.63374 6.13001 1.47571 6.52783 1.47571C6.92566 1.47571 7.30719 1.63374 7.58849 1.91505C7.8698 2.19635 8.02783 2.57788 8.02783 2.97571V7.61633C8.4279 7.92868 8.72049 8.35812 8.86477 8.84473C9.00906 9.33135 8.99783 9.85087 8.83267 10.3308C8.66751 10.8107 8.35665 11.2271 7.94347 11.5219C7.53029 11.8167 7.03539 11.9751 6.52783 11.9751C6.02028 11.9751 5.52538 11.8167 5.11219 11.5219C4.69901 11.2271 4.38815 10.8107 4.22299 10.3308C4.05783 9.85087 4.04661 9.33135 4.19089 8.84473C4.33517 8.35812 4.62776 7.92868 5.02783 7.61633V7.61633Z"/><path stroke="#111820" stroke-linecap="round" stroke-linejoin="round" d="M6.52783 10.4757C7.0456 10.4757 7.46533 10.056 7.46533 9.53821C7.46533 9.02044 7.0456 8.60071 6.52783 8.60071C6.01007 8.60071 5.59033 9.02044 5.59033 9.53821C5.59033 10.056 6.01007 10.4757 6.52783 10.4757Z"/><path stroke="#111820" stroke-linecap="round" stroke-linejoin="round" d="M6.52783 8.60071V4.85071"/></svg>