<svg xmlns="http://www.w3.org/2000/svg" width="13" height="13" fill="none" viewBox="0 0 13 13"><path stroke="#111820" stroke-linecap="round" stroke-linejoin="round" d="M6.43652 9.73977C6.50765 9.93273 6.6303 10.1025 6.79115 10.2306C6.95201 10.3588 7.14491 10.4404 7.34889 10.4666C7.55286 10.4927 7.76012 10.4625 7.94812 10.3791C8.13612 10.2958 8.29767 10.1625 8.41522 9.99374C8.53277 9.825 8.60181 9.62726 8.61485 9.42202C8.62788 9.21678 8.58441 9.01189 8.48916 8.82963C8.3939 8.64737 8.25051 8.49471 8.07457 8.38823C7.89863 8.28176 7.69686 8.22554 7.49121 8.22571H2.24121"/><path stroke="#111820" stroke-linecap="round" stroke-linejoin="round" d="M4.93652 3.71177C5.00765 3.51881 5.1303 3.34903 5.29115 3.22089C5.45201 3.09276 5.64491 3.01117 5.84888 2.98498C6.05286 2.9588 6.26012 2.98904 6.44812 3.07239C6.63612 3.15575 6.79767 3.28905 6.91522 3.4578C7.03276 3.62654 7.10181 3.82428 7.11484 4.02952C7.12788 4.23476 7.08441 4.43964 6.98915 4.62191C6.8939 4.80417 6.75051 4.95683 6.57457 5.06331C6.39863 5.16978 6.19686 5.22599 5.99121 5.22583H1.49121"/><path stroke="#111820" stroke-linecap="round" stroke-linejoin="round" d="M9.06104 5.21165C9.13216 5.01868 9.25481 4.84891 9.41566 4.72077C9.57652 4.59264 9.76942 4.51104 9.9734 4.48486C10.1774 4.45868 10.3846 4.48891 10.5726 4.57227C10.7606 4.65563 10.9222 4.78893 11.0397 4.95768C11.1573 5.12642 11.2263 5.32416 11.2394 5.5294C11.2524 5.73464 11.2089 5.93952 11.1137 6.12178C11.0184 6.30405 10.875 6.45671 10.6991 6.56319C10.5231 6.66966 10.3214 6.72587 10.1157 6.72571H1.86572"/></svg>